<?xml version="1.0" standalone="no"?>
<!DOCTYPE svg PUBLIC "-//W3C//DTD SVG 20010904//EN"
 "http://www.w3.org/TR/2001/REC-SVG-20010904/DTD/svg10.dtd">
<svg version="1.0" xmlns="http://www.w3.org/2000/svg"
 width="256.000000pt" height="256.000000pt" viewBox="0 0 256.000000 256.000000"
 preserveAspectRatio="xMidYMid meet">

<g transform="translate(0.000000,256.000000) scale(0.100000,-0.100000)"
fill="#000000" stroke="none">
<path d="M1085 2544 c-180 -28 -367 -101 -522 -205 -99 -66 -275 -242 -340
-339 -352 -527 -277 -1214 180 -1646 143 -136 298 -227 487 -288 138 -45 236
-59 400 -59 354 0 667 136 916 395 310 324 425 776 308 1218 -32 120 -125 312
-201 416 -285 384 -760 581 -1228 508z m371 -179 c237 -38 455 -154 622 -329
128 -135 220 -300 269 -483 24 -88 27 -116 27 -273 0 -159 -3 -184 -28 -275
-109 -401 -425 -704 -830 -797 -117 -27 -344 -29 -453 -5 -299 68 -539 231
-700 476 -112 169 -170 349 -180 556 -31 693 587 1241 1273 1130z"/>
<path d="M390 1653 c0 -4 61 -176 137 -381 l138 -373 69 3 68 3 28 75 c30 83
235 635 245 663 6 15 -1 17 -78 17 l-85 0 -88 -237 c-66 -177 -90 -233 -97
-221 -6 8 -47 114 -91 234 l-81 219 -83 3 c-45 2 -82 -1 -82 -5z"/>
<path d="M1178 1640 c-79 -62 -6 -184 87 -146 62 26 74 89 26 137 -35 35 -77
38 -113 9z"/>
<path d="M1900 1280 l0 -380 80 0 80 0 0 380 0 380 -80 0 -80 0 0 -380z"/>
<path d="M1503 1603 c-22 -4 -23 -9 -23 -84 l0 -79 -30 0 c-30 0 -30 -1 -30
-55 0 -54 0 -55 30 -55 l30 0 1 -107 c1 -204 15 -250 89 -300 49 -34 151 -33
203 2 20 14 37 30 37 35 0 15 -43 100 -51 100 -3 0 -12 -7 -19 -15 -18 -22
-77 -19 -90 4 -5 11 -10 78 -10 150 l0 131 65 0 65 0 0 55 0 55 -65 0 -64 0
-3 83 -3 82 -55 1 c-30 1 -65 0 -77 -3z"/>
<path d="M1156 1403 c-3 -21 -6 -143 -6 -270 l0 -233 80 0 80 0 0 270 0 270
-74 0 -73 0 -7 -37z"/>
</g>
</svg>
