<?xml version="1.0" encoding="utf-8"?>
<svg xmlns="http://www.w3.org/2000/svg" viewBox="0 0 500 500">
  <g id="#ffffffff" transform="matrix(1.227068, 0, 0, 1.227068, 5.314647, 17.598259)" style="">
    <path fill="#ffffff" opacity="1.00" d=" M 197.07 63.77 C 211.00 63.54 224.97 63.47 238.90 63.81 C 250.73 99.86 262.06 136.08 273.82 172.16 C 280.34 193.11 287.48 213.87 293.75 234.90 C 283.18 235.09 272.60 235.02 262.03 234.96 C 257.03 220.13 252.55 205.12 247.84 190.19 C 228.23 189.77 208.61 190.08 189.00 190.03 C 188.52 191.20 188.03 192.37 187.65 193.59 C 183.82 207.38 179.79 221.11 175.82 234.86 C 165.48 235.13 155.12 235.05 144.78 234.89 C 145.27 231.90 146.12 228.98 147.13 226.13 C 158.06 190.38 168.99 154.63 179.91 118.88 C 185.76 100.56 190.78 81.95 197.07 63.77 M 217.58 86.00 C 210.65 112.37 202.72 138.48 195.94 164.88 C 210.65 165.09 225.37 165.08 240.07 164.88 C 234.34 143.51 228.01 122.30 222.03 101.01 C 220.40 96.05 219.60 90.83 217.58 86.00 Z"/>
  </g>
  <path d="M 484.987 141.698 L 484.987 69.032 L 397.587 114.913 L 397.587 112.199 C 397.587 83.232 376.827 65.751 346.767 65.751 L 69.717 65.751 C 38.047 65.751 18.897 83.232 18.897 112.199 L 18.897 185.414 L 141.297 248.793 L 18.897 312.719 L 18.897 385.936 C 18.897 414.353 38.047 431.832 69.717 431.832 L 346.747 431.832 C 376.797 431.832 397.547 414.353 397.547 385.936 L 397.547 382.121 L 484.957 428.554 L 484.957 354.804 L 281.737 248.793 L 485.007 141.698 L 484.987 141.698 Z M 211.267 284.836 L 361.527 363.544 L 60.407 363.544 L 211.217 284.836 L 211.267 284.836 Z M 360.427 134.056 L 211.247 212.184 L 60.427 134.056 L 360.407 134.056 L 360.427 134.056 Z M 747.277 358.22 C 659.627 358.22 598.397 302.575 598.397 222.862 C 598.397 143.147 659.627 87.502 747.277 87.502 C 769.387 87.502 795.367 90.003 835.179 108.125 L 835.179 164.822 C 806.365 148.759 777.887 140.614 750.517 140.614 C 695.607 140.614 657.267 174.448 657.267 222.831 C 657.267 271.23 695.607 305.077 750.517 305.077 C 777.137 305.077 806.394 296.779 835.179 281.069 L 835.179 337.582 C 795.336 355.704 769.387 358.205 747.277 358.205 L 747.277 358.22 Z M 952.568 358.22 C 900.752 358.22 864.572 318.866 864.572 262.536 C 864.572 206.204 902.325 166.438 954.322 166.438 C 983.061 166.438 1003.04 175.21 1019.1 194.933 L 1020.4 196.489 L 1020.4 175.79 L 1071.07 175.79 L 1071.07 354.132 L 1020.4 354.132 L 1020.4 328.811 L 1019.07 330.702 C 1006.05 349.48 984.907 358.22 952.568 358.22 Z M 970.08 208.95 C 939.725 208.95 917.699 231.494 917.699 262.536 C 917.699 293.591 939.725 315.723 970.08 315.723 C 1000.43 315.723 1022.86 293.332 1022.86 262.536 C 1022.86 231.738 1000.68 208.95 970.08 208.95 Z M 1109.51 431.832 L 1109.51 175.79 L 1160.61 175.79 L 1160.61 198.059 L 1161.92 196.23 C 1171.73 182.455 1194.95 166.424 1228.11 166.424 C 1279.05 166.424 1316.01 206.845 1316.01 262.519 C 1316.01 318.195 1279.68 358.205 1227.69 358.205 C 1196.67 358.205 1174.54 349.281 1161.92 331.619 L 1160.59 329.788 L 1160.59 431.832 L 1109.49 431.832 L 1109.51 431.832 Z M 1210.49 208.92 C 1180.13 208.92 1158.15 231.465 1158.15 262.519 C 1158.15 293.561 1180.18 315.694 1210.5 315.694 C 1240.83 315.694 1262.47 293.317 1262.47 262.519 C 1262.47 231.709 1240.61 208.92 1210.5 208.92 L 1210.49 208.92 Z M 1496.11 358.22 C 1408.45 358.22 1347.23 302.575 1347.23 222.862 C 1347.23 143.147 1408.45 87.502 1496.11 87.502 C 1518.21 87.502 1544.18 90.003 1584.02 108.125 L 1584.02 164.822 C 1555.19 148.759 1526.71 140.614 1499.37 140.614 C 1444.46 140.614 1406.11 174.448 1406.11 222.831 C 1406.11 271.23 1444.46 305.077 1499.37 305.077 C 1526 305.077 1555.25 296.779 1584.02 281.069 L 1584.02 337.582 C 1544.16 355.704 1518.21 358.205 1496.11 358.205 L 1496.11 358.22 Z M 1709.01 358.22 C 1651.86 358.22 1614.97 331.252 1614.97 289.55 L 1614.97 170.497 L 1665.64 170.497 L 1665.64 274.753 C 1665.64 300.379 1681.87 315.679 1709.01 315.679 C 1736.13 315.679 1751.58 300.395 1751.58 274.769 L 1751.58 170.497 L 1802.23 170.497 L 1802.23 289.504 C 1802.23 331.237 1765.66 358.189 1709.01 358.189 L 1709.01 358.205 L 1709.01 358.22 Z M 1914.09 358.22 C 1857.98 358.22 1838.04 323.411 1838.04 293.607 L 1838.04 160.964 L 1888.72 134.3 L 1888.72 170.512 L 1958.67 170.512 L 1958.67 211.971 L 1888.72 211.971 L 1888.72 283.387 C 1888.72 292.981 1892.38 315.297 1926.37 315.297 C 1935.79 315.297 1947.5 312.81 1958.65 308.463 L 1958.65 351.173 C 1940.92 357.671 1920.08 358.189 1914.07 358.189 L 1914.09 358.22 Z" fill="#000000" style=""/>
</svg>