<?xml version="1.0" encoding="utf-8"?>
<!-- Generator: Adobe Illustrator 26.3.1, SVG Export Plug-In . SVG Version: 6.00 Build 0)  -->
<svg version="1.1" id="Calque_1" xmlns="http://www.w3.org/2000/svg" xmlns:xlink="http://www.w3.org/1999/xlink" x="0px" y="0px"
	 viewBox="0 0 419.5 419.5" style="enable-background:new 0 0 419.5 419.5;" xml:space="preserve">
<g>
	<path d="M224.8,137.8c-0.1,2.3,0,4-0.4,5.5c-0.3,1.3-1.3,2.4-2,3.5c-0.7-1.1-2.3-2.4-2.1-3.3c1.8-8.2-3.4-11.4-9.4-14.7
		c-10-5.5-19.7-11.6-30.3-18c-0.1,2.7-0.3,4.4-0.3,6.2c0,5,0.1,10-0.1,15c0,1-1.2,2-1.9,3c-0.7-0.9-1.9-1.8-1.9-2.8
		c-0.2-8.2-0.3-16.3,0.1-24.5c0.1-1.4,2-3.3,3.5-4.1c12.1-6.4,24.2-12.6,36.4-18.6c3-1.5,4.5-3.2,3.9-6.5c-0.7-4.3,1.6-6.2,5.1-7.9
		c12.4-6,24.7-12.4,37.2-18.3c2.1-1,5.4-1.3,7.3-0.4c14.5,7.1,28.8,14.7,43.2,21.9c3,1.5,4,3.3,4,6.6c-0.3,15.2-0.3,30.3-0.7,45.5
		c-0.1,3.8,1.1,6.1,4.4,8c7.8,4.5,15.4,9.3,22.9,14.2c1.4,0.9,2.1,2.8,3.1,4.3c-1.8-0.2-3.8,0.1-5.2-0.7c-8.2-4.8-16.2-9.8-24.2-15
		c-2.5-1.6-4.3-1.6-6.8-0.1c-13.2,7.8-26.5,15.3-39.7,23.1c-3.3,2-5.9,1.8-9.1-0.2c-10.8-6.7-21.7-13-32.6-19.5
		C227.9,139.3,226.6,138.7,224.8,137.8z M268.5,155.3c1.6-0.5,2.3-0.6,2.9-0.9c12.6-7.2,25.2-14.3,37.5-21.8
		c1.6-0.9,2.8-3.7,2.9-5.6c0.4-13.6,0.4-27.3,0.5-41c0-1.4-0.2-2.8-0.4-4.5c-1.1,0.3-1.8,0.3-2.3,0.6c-12.8,6.3-25.7,12.5-38.5,19
		c-1.3,0.7-2.4,3-2.5,4.7c-0.2,9-0.1,18-0.1,27C268.5,140,268.5,147.3,268.5,155.3z M225.2,79c-0.4,1.4-0.7,2.2-0.7,2.9
		c0,15.8-0.1,31.6,0.1,47.5c0,1.5,1.6,3.6,3,4.5c7.3,4.6,14.8,9,22.2,13.4c4.5,2.7,9,5.3,14.4,8.4c0-2.9,0-4.7,0-6.5
		c0-12.2-0.6-24.4,0.2-36.5c0.5-8.1-1.9-12.7-9.2-16.3C245.1,91.3,235.5,85,225.2,79z M226.8,74.9c13.4,7.9,25.9,15.2,38.4,22.4
		c1,0.6,2.9,0,4.1-0.6c6.9-3.2,13.8-6.6,20.7-10c6.2-3,12.4-6.1,19.6-9.6c-11.7-6-22.6-10.9-32.9-17c-7.2-4.3-13.2-4.6-20.6-0.1
		C247.2,65.5,237.3,69.6,226.8,74.9z M182.5,107c12.9,7.7,24.7,14.8,37.1,22.2c0-14.2,0-27.2,0-41C207.2,94.5,195.5,100.5,182.5,107
		z"/>
	<path d="M153.2,272.2c-6.6,0-12.4,0-18.9,0c0-2.1,0-4.1,0-6c0-36.2-0.2-72.4,0-108.5c0-4.9-1.4-6.5-6.2-6.1
		c-4.8,0.4-9.6,0.1-14.3,0.1c-1.1-3.5-0.7-5.3,3-5.3c18.5,0.1,37,0,55.5,0.1c1.1,0,2.2,1.6,3.4,2.4c-1.1,0.9-2.1,2.5-3.3,2.6
		c-4.1,0.3-8.3,0.4-12.5,0.1c-4.3-0.3-5.7,1-5.7,5.6c-0.2,35.8-0.6,71.7-0.9,107.5C153.1,267,153.2,269.3,153.2,272.2z"/>
	<path d="M200.7,273.1c-18.8,0.1-34-14.9-34.3-33.7c-0.2-18.9,15-34.4,34-34.6c18.5-0.2,34.2,15.3,34.4,33.8
		C234.9,257.6,219.7,273,200.7,273.1z M218.3,239.5c0-7,0.2-14-0.1-20.9c-0.1-1.9-1.4-4.6-3-5.5c-9.7-5.5-19.7-5.5-29.4,0.1
		c-1.5,0.8-2.8,3.3-2.9,5.1c-0.2,13.8-0.3,27.6,0,41.4c0,1.9,1.9,4.7,3.6,5.6c8.9,4.7,18.1,4.7,27.3,0.5c3.1-1.4,4.6-3.2,4.5-6.8
		C218.1,252.5,218.3,246,218.3,239.5z"/>
	<path d="M306.8,206.1c10,0.4,20.7-2.4,29.9,4.7c14.1,10.8,13.3,30.8-1.6,40.6c-0.9,0.6-1.8,1.4-3.1,2.3c4,5.9,7.8,11.7,11.7,17.4
		c-0.3,0.5-0.6,1-0.9,1.5c-1.8-1-4-1.6-5.2-3.1c-2.9-3.6-5.5-7.5-7.8-11.5c-1.8-3.2-4-3.6-7.6-2.2c0,5.1,0,10.4,0,16.4
		c-5.1,0-9.7,0.1-14.3-0.1c-0.8,0-2.1-1.7-2.1-2.6c0-20.8,0.2-41.6,0.3-62.4C306.2,206.9,306.3,206.8,306.8,206.1z M322.4,250.3
		c8.8,1.8,20.1-8.3,20.2-19.3c0-11.5-8.9-20.8-20.2-20.2C322.4,223.8,322.4,236.9,322.4,250.3z"/>
	<path d="M262.8,237.1c0,8.8,0.1,17.7,0,26.5c0,2.9,0.9,4.6,4,4.1c5-0.8,10.3-1,14.8-3c4.9-2.2,7-7.4,7-12.9c0-13,0.1-26,0.1-39
		c0-1.3-0.3-2.8,0.1-4c0.3-1,1.4-1.8,2.1-2.7c0.7,0.9,2,1.7,2,2.6c0.2,5.2,0.1,10.3,0.1,15.5c0,9,0.1,18-0.1,27
		c-0.2,11.9-8.6,20.5-20.4,20.8c-6.7,0.2-13.7,1.1-19.6-3.7c-3.8-3.1-6.1-7.1-6.1-12c-0.1-15.5,0-31-0.1-46.5c0-2.7,0.9-3.8,3.7-3.9
		c12.4-0.9,12.4-0.9,12.4,11.2C262.8,223.8,262.8,230.5,262.8,237.1z"/>
	<path d="M77,272c5.7-13,11.3-26.1,17.5-40.2c6.2,14.2,11.9,27.3,17.6,40.5c-0.5,0.4-0.9,0.8-1.4,1.2c-1.1-1.1-2.7-2-3.3-3.4
		c-1.2-2.8-3-3.6-5.8-3.5c-3.8,0.2-7.6,0.1-11.5,0c-3.9-0.1-7.7-0.5-8.9,4.8c-0.2,0.8-2.1,1.3-3.2,1.9C77.6,272.9,77.3,272.4,77,272
		z M104.1,263.1c-3.3-7.7-6.2-14.4-9.6-22.5c-3.4,8.1-6.3,15-9.5,22.5C91.8,263.1,97.4,263.1,104.1,263.1z"/>
	<path d="M57.3,289.1c9.1-1.3,16.1,0.9,21,8.2c4,6,4.3,12.7,0.8,18.9c-3.8,7-10.1,10.2-18.2,10c-2.3-0.1-3.8-0.5-3.7-3.3
		C57.4,311.8,57.3,300.7,57.3,289.1z M61,292.2c0,10.3,0,20.3,0,30.3c10.3,0.5,17.4-6.2,17.2-15.5C78,297.9,70.9,291.6,61,292.2z"/>
	<path d="M278.4,325.3c0-11.9,0-23.8,0-35.7c7.5-2.3,15.2,0.3,19.8,6.6c4.9,6.6,5.2,14.8,0.8,21.5
		C294.6,324.4,286.7,327.3,278.4,325.3z M281.1,322.3c9.7,1.1,16.8-4.6,17.7-13.4c0.9-8.3-5.4-16.3-13.5-16.7c-1.4-0.1-4,1.6-4,2.5
		C281,303.8,281.1,312.9,281.1,322.3z"/>
	<path d="M223.4,289.6c5.4,0,9.9,0,14.4,0c0,0.6,0,1.2,0,1.8c-3.4,0.3-6.9,0.6-10.7,0.9c0,4.4,0,8.6,0,13.1c3.6,0.5,7.3,1,10.9,1.5
		c-0.1,0.7-0.2,1.4-0.2,2c-3.5,0.2-7,0.4-10.8,0.6c0,4.4,0,8.5,0,12.9c3.7,0.3,7.3,0.6,11.5,1c-2.5,2.6-12.7,3.6-14.3,2
		c-0.4-0.4-0.7-1.2-0.7-1.8C223.4,312.2,223.4,300.8,223.4,289.6z"/>
	<path d="M246.7,325.7c0-12.1,0-24.3,0-36.4c12.4-2.2,21.1,4.8,21.2,17.1c0.1,5.2,0.1,10.3,0,15.5c0,1.4-0.6,2.7-0.9,4.1
		c-0.5,0-1.1-0.1-1.6-0.1c-0.2-1.7-0.4-3.3-0.4-5c-0.1-5.5,0.1-11-0.2-16.5c-0.5-6.7-5.1-11.4-11.1-12.2c-3.2-0.4-4.6,0.5-4.5,3.9
		c0.1,8.3,0.1,16.6,0,25c0,1.6-0.4,3.3-0.6,4.9C247.9,325.8,247.3,325.8,246.7,325.7z"/>
	<path d="M313.3,305.3c4.3,0.6,8,1,11.6,1.5c-0.1,0.7-0.2,1.4-0.3,2.1c-3.5,0.2-7.1,0.4-11,0.6c0,4.3,0,8.4,0,13.4
		c2.9,0,5.6-0.1,8.3,0.1c0.9,0.1,1.8,0.9,2.7,1.4c-0.8,0.6-1.6,1.7-2.5,1.7c-3.8,0.2-7.6,0.1-11.8,0.1c0-12.5,0-24.6,0-37.2
		c4.8-0.2,9.6-0.7,14.2,0.3c0,0.8,0,1.5,0,2.3c-2.7,0.1-5.3,0.4-8,0.3c-2.6,0-3.6,1-3.5,3.6C313.4,298.7,313.3,302,313.3,305.3z"/>
	<path d="M210.5,322.4c0-5.7,0-11,0-16.3c0.6,0,1.3,0.1,1.9,0.1c0,6.4,0,12.8,0,19.2c-10.3,2.3-20.9-8.7-19.4-20.3
		c1-7.9,7.7-14.9,15.6-16c1.4-0.2,2.9,0.6,4.3,1c-1.3,0.7-2.5,1.8-3.8,2.1c-7.2,1.4-12.5,7.1-13.1,14.3c-0.5,6.7,4.2,13.6,10.8,15.6
		C207.6,322.2,208.5,322.2,210.5,322.4z"/>
	<path d="M104.1,291.2c-3.6,0.4-7.2,0.8-10.9,1.2c0,4.4,0,8.7,0,13c3.9,0.4,7.5,0.8,11.1,1.2c-0.1,0.7-0.1,1.4-0.2,2.1
		c-3.5,0.2-7,0.5-10.9,0.8c0,4.3,0,8.5,0,12.8c3.8,0.4,7.4,0.8,11,1.1c-0.1,0.8-0.1,1.6-0.2,2.5c-4.2,0-8.4,0.1-12.5-0.1
		c-0.7,0-1.8-1.9-1.8-2.9c-0.1-10.3-0.2-20.6,0.1-31c0-1.1,2-3,3.1-3.1c3.7-0.3,7.4,0.1,11.2,0.2
		C104.1,289.8,104.1,290.5,104.1,291.2z"/>
	<path d="M172.2,326.1c0-12.7,0-24.6,0-36.7c4.7,0,9.3,0,13.8,0c0,0.6,0.1,1.3,0.1,1.9c-2.4,0.2-4.7,0.6-7.1,0.6
		c-3-0.1-4.3,1.1-4,4.1c0.1,0.8,0,1.7,0,2.5c0,8.3-0.4,7.5,7,7.6c1.3,0,2.6,1.1,3.9,1.7c-1.4,0.5-2.8,1.2-4.2,1.4
		c-1.9,0.2-3.9,0.1-6.7,0.1c0,4-0.3,7.7,0.2,11.2c0.2,1,2.8,1.8,4.4,2.4c2.1,0.8,4.2,1.3,6.3,1.9c-2.1,0.5-4.2,1.2-6.3,1.4
		C177.5,326.3,175.2,326.1,172.2,326.1z"/>
	<path d="M60.9,269.3c3.4,0.2,6,0.4,9.4,0.6c-0.8,1.3-1.1,2.4-1.9,2.9c-0.6,0.4-1.6,0.2-2.4,0.2c-10.5,0-8.5,0.6-8.6-8.3
		c-0.1-9.5-0.1-18.9,0.1-28.4c0-1.3,1.2-2.6,1.8-3.9c0.5,1.3,1.6,2.6,1.6,4C60.9,247.3,60.9,258,60.9,269.3z"/>
	<path d="M109.5,321.7c8.6,1.8,13.5-0.8,12.7-6.7c-0.4-2.5-2.7-5-4.7-7c-3.9-3.7-5.5-8.3-3.5-13c1.9-4.5,5.6-6.3,10.3-6.3
		c0.4,0,0.8,0.4,2.1,1c-1.4,0.9-2.3,2-3.3,2.1c-3.7,0.6-6.8,2.9-6.6,6.3c0.1,2.8,2.2,6.1,4.5,8c6.8,5.9,6.6,15.5-1.4,18.6
		c-2.7,1-6.3-0.2-9.4-0.5C109.9,324.3,109.8,323,109.5,321.7z"/>
	<path d="M329.8,321.8c2.5,0.4,4.3,1.3,5.6,0.8c2.6-1,5.6-2.2,7.1-4.3c1.9-2.7,1-6.1-1.8-8.5c-1.8-1.5-3.7-2.9-5.1-4.7
		c-2.7-3.5-2.7-7.5-0.4-11.2c2.5-4.1,6.2-5.5,12.1-4.2c-1.8,1.1-2.8,2.1-4,2.3c-3.6,0.7-6.3,2.8-6.1,6.2c0.2,2.7,1.9,6,4,7.8
		c5.4,4.7,6.9,10.6,3.1,15.7C340.7,326.8,333.3,327.3,329.8,321.8z"/>
	<path d="M154.3,288.9c0,11.1,0,22.1,0,33.6c2.9,0.2,4.8,0.1,6.7,0.5c0.7,0.1,1.2,1.1,1.8,1.7c-0.6,0.4-1.2,1.2-1.8,1.3
		c-2.3,0.2-4.7,0.3-7-0.1c-0.9-0.1-2.2-1.6-2.2-2.5c-0.1-11.1,0-22.3,0.1-33.4c0-0.4,0.5-0.7,0.8-1.1
		C153.3,288.9,153.8,288.9,154.3,288.9z"/>
</g>
</svg>
