<svg xmlns="http://www.w3.org/2000/svg" version="1.1" xmlns:xlink="http://www.w3.org/1999/xlink" width="540" height="540"><svg width="540" height="540" viewBox="0 0 540 540" fill="none" xmlns="http://www.w3.org/2000/svg">
<g filter="url(#filter0_dn_166_217)">
<path d="M168.333 413.234C156.32 404.302 149.543 391.98 148.003 376.271C162.172 367.954 175.263 357.79 187.276 345.777V134.625C187.276 103.822 193.745 80.1044 206.682 63.4711C219.927 46.8377 239.025 38.675 263.975 38.983C286.769 39.291 304.48 47.9157 317.109 64.8572C330.046 81.7986 336.515 103.822 336.515 130.929C336.515 153.415 333.434 176.517 327.274 200.234C321.421 223.644 312.181 247.208 299.552 270.926C303.248 270.31 307.098 270.002 311.103 270.002C331.124 270.002 347.142 276.009 359.155 288.022C371.168 300.035 377.174 315.898 377.174 335.612C377.174 351.937 371.322 366.26 359.617 378.581C348.22 390.902 332.818 400.143 313.413 406.304C320.189 410.616 326.196 415.852 331.432 422.013L345.293 438.184C352.686 447.117 359.463 453.586 365.623 457.59C371.784 461.286 379.946 464.213 390.111 466.369C392.267 472.221 392.575 478.69 391.035 485.774C389.495 492.551 386.723 497.633 382.719 501.022C372.554 501.022 363.005 498.711 354.072 494.091C345.447 489.163 335.899 481.462 325.426 470.989L305.558 450.659C296.933 442.035 289.541 435.566 283.38 431.254C277.528 426.633 270.597 423.553 262.589 422.013C254.888 420.165 244.107 419.241 230.246 419.241C229.938 424.169 229.784 429.098 229.784 434.026V494.553C226.704 495.477 223.315 496.247 219.619 496.863C215.923 497.479 212.38 497.787 208.992 497.787C201.907 497.787 194.669 496.709 187.276 494.553V400.297C179.884 406.15 173.569 410.462 168.333 413.234ZM228.398 134.163V313.896C250.267 281.861 266.901 250.289 278.298 219.178C289.695 187.759 295.393 158.189 295.393 130.467C295.393 113.217 292.467 100.126 286.615 91.1934C281.07 81.9526 272.907 77.3322 262.126 77.3322C239.641 77.3322 228.398 96.2758 228.398 134.163ZM303.71 306.503C287.385 306.503 273.061 313.742 260.74 328.219C248.727 342.696 240.103 361.794 234.866 385.512C240.103 386.128 246.109 386.436 252.886 386.436C268.903 386.436 283.226 384.28 295.855 379.967C308.484 375.655 318.341 369.803 325.426 362.41C332.818 355.017 336.515 346.701 336.515 337.46C336.515 328.219 333.434 320.827 327.274 315.282C321.421 309.43 313.567 306.503 303.71 306.503Z" fill="#0D0D0D"></path>
</g>
<defs>
<filter id="SvgjsFilter1226" x="148.003" y="38.9746" width="248.995" height="467.047" filterUnits="userSpaceOnUse" color-interpolation-filters="sRGB">
<feFlood flood-opacity="0" result="BackgroundImageFix"></feFlood>
<feColorMatrix in="SourceAlpha" type="matrix" values="0 0 0 0 0 0 0 0 0 0 0 0 0 0 0 0 0 0 127 0" result="hardAlpha"></feColorMatrix>
<feOffset dx="5" dy="5"></feOffset>
<feComposite in2="hardAlpha" operator="out"></feComposite>
<feColorMatrix type="matrix" values="0 0 0 0 0 0 0 0 0 0 0 0 0 0 0 0 0 0 0.18 0"></feColorMatrix>
<feBlend mode="normal" in2="BackgroundImageFix" result="effect1_dropShadow_166_217"></feBlend>
<feBlend mode="normal" in="SourceGraphic" in2="BackgroundImageFix" result="shape"></feBlend>
<feTurbulence type="fractalNoise" baseFrequency="1 1" stitchTiles="stitch" numOctaves="3" result="noise" seed="970"></feTurbulence>
<feComponentTransfer in="noise" result="coloredNoise1">
<feFuncR type="linear" slope="2" intercept="-0.5"></feFuncR>
<feFuncG type="linear" slope="2" intercept="-0.5"></feFuncG>
<feFuncB type="linear" slope="2" intercept="-0.5"></feFuncB>
<feFuncA type="discrete" tableValues="1 1 1 1 1 1 1 1 1 1 1 1 1 1 1 1 1 1 1 1 1 1 1 1 1 1 1 1 1 1 1 1 1 1 1 1 1 1 1 1 1 1 1 1 1 1 1 1 1 1 1 0 0 0 0 0 0 0 0 0 0 0 0 0 0 0 0 0 0 0 0 0 0 0 0 0 0 0 0 0 0 0 0 0 0 0 0 0 0 0 0 0 0 0 0 0 0 0 0 0 "></feFuncA>
</feComponentTransfer>
<feComposite operator="in" in2="shape" in="coloredNoise1" result="noise1Clipped"></feComposite>
<feComponentTransfer in="noise1Clipped" result="color1">
<feFuncA type="table" tableValues="0 0.15"></feFuncA>
</feComponentTransfer>
<feMerge result="effect2_noise_166_217">
<feMergeNode in="shape"></feMergeNode>
<feMergeNode in="color1"></feMergeNode>
</feMerge>
<feBlend mode="normal" in="effect2_noise_166_217" in2="effect1_dropShadow_166_217" result="effect2_noise_166_217"></feBlend>
</filter>
</defs>
</svg><style>@media (prefers-color-scheme: light) { :root { filter: none; } }
@media (prefers-color-scheme: dark) { :root { filter: invert(100%); } }
</style></svg>