<svg width="486" height="486" viewBox="0 0 486 486" fill="none" xmlns="http://www.w3.org/2000/svg">
<g filter="url(#filter0_dn_166_217)">
<path d="M182.349 328.448C175.182 323.12 171.139 315.769 170.221 306.398C178.674 301.436 186.483 295.372 193.65 288.206V162.24C193.65 143.864 197.509 129.714 205.227 119.792C213.128 109.869 224.521 104.999 239.406 105.183C253.004 105.367 263.57 110.512 271.104 120.618C278.822 130.725 282.681 143.864 282.681 160.034C282.681 173.449 280.843 187.231 277.168 201.38C273.676 215.346 268.164 229.403 260.63 243.552C262.835 243.185 265.132 243.001 267.52 243.001C279.465 243.001 289.02 246.584 296.187 253.751C303.353 260.918 306.937 270.381 306.937 282.142C306.937 291.881 303.445 300.425 296.462 307.776C289.663 315.126 280.475 320.639 268.899 324.314C272.941 326.887 276.525 330.01 279.648 333.686L287.918 343.333C292.328 348.662 296.37 352.521 300.046 354.91C303.721 357.115 308.59 358.86 314.654 360.147C315.941 363.638 316.124 367.497 315.206 371.723C314.287 375.766 312.633 378.798 310.244 380.819C304.18 380.819 298.484 379.441 293.155 376.685C288.009 373.745 282.313 369.151 276.065 362.903L264.213 350.775C259.068 345.63 254.657 341.771 250.982 339.198C247.491 336.442 243.356 334.604 238.579 333.686C233.985 332.583 227.553 332.032 219.284 332.032C219.1 334.972 219.008 337.912 219.008 340.852V376.961C217.171 377.512 215.149 377.971 212.944 378.339C210.739 378.706 208.626 378.89 206.605 378.89C202.378 378.89 198.06 378.247 193.65 376.961V320.731C189.24 324.222 185.473 326.795 182.349 328.448ZM218.181 161.964V269.187C231.228 250.076 241.151 231.241 247.95 212.681C254.749 193.938 258.149 176.297 258.149 159.759C258.149 149.468 256.403 141.659 252.912 136.33C249.604 130.817 244.735 128.061 238.303 128.061C224.889 128.061 218.181 139.362 218.181 161.964ZM263.11 264.776C253.371 264.776 244.826 269.095 237.476 277.731C230.31 286.368 225.164 297.761 222.04 311.91C225.164 312.278 228.748 312.462 232.79 312.462C242.346 312.462 250.89 311.175 258.424 308.603C265.959 306.03 271.839 302.539 276.065 298.128C280.475 293.718 282.681 288.757 282.681 283.244C282.681 277.731 280.843 273.321 277.168 270.014C273.676 266.522 268.991 264.776 263.11 264.776Z" fill="#0D0D0D"/>
</g>
<defs>
<filter id="filter0_dn_166_217" x="170.221" y="105.178" width="150.559" height="280.643" filterUnits="userSpaceOnUse" color-interpolation-filters="sRGB">
<feFlood flood-opacity="0" result="BackgroundImageFix"/>
<feColorMatrix in="SourceAlpha" type="matrix" values="0 0 0 0 0 0 0 0 0 0 0 0 0 0 0 0 0 0 127 0" result="hardAlpha"/>
<feOffset dx="5" dy="5"/>
<feComposite in2="hardAlpha" operator="out"/>
<feColorMatrix type="matrix" values="0 0 0 0 0 0 0 0 0 0 0 0 0 0 0 0 0 0 0.18 0"/>
<feBlend mode="normal" in2="BackgroundImageFix" result="effect1_dropShadow_166_217"/>
<feBlend mode="normal" in="SourceGraphic" in2="BackgroundImageFix" result="shape"/>
<feTurbulence type="fractalNoise" baseFrequency="1 1" stitchTiles="stitch" numOctaves="3" result="noise" seed="970" />
<feComponentTransfer in="noise" result="coloredNoise1">
<feFuncR type="linear" slope="2" intercept="-0.5" />
<feFuncG type="linear" slope="2" intercept="-0.5" />
<feFuncB type="linear" slope="2" intercept="-0.5" />
<feFuncA type="discrete" tableValues="1 1 1 1 1 1 1 1 1 1 1 1 1 1 1 1 1 1 1 1 1 1 1 1 1 1 1 1 1 1 1 1 1 1 1 1 1 1 1 1 1 1 1 1 1 1 1 1 1 1 1 0 0 0 0 0 0 0 0 0 0 0 0 0 0 0 0 0 0 0 0 0 0 0 0 0 0 0 0 0 0 0 0 0 0 0 0 0 0 0 0 0 0 0 0 0 0 0 0 0 "/>
</feComponentTransfer>
<feComposite operator="in" in2="shape" in="coloredNoise1" result="noise1Clipped" />
<feComponentTransfer in="noise1Clipped" result="color1">
<feFuncA type="table" tableValues="0 0.15" />
</feComponentTransfer>
<feMerge result="effect2_noise_166_217">
<feMergeNode in="shape" />
<feMergeNode in="color1" />
</feMerge>
<feBlend mode="normal" in="effect2_noise_166_217" in2="effect1_dropShadow_166_217" result="effect2_noise_166_217"/>
</filter>
</defs>
</svg>
